<?xml version="1.0" standalone="no"?><!DOCTYPE svg PUBLIC "-//W3C//DTD SVG 1.1//EN" "http://www.w3.org/Graphics/SVG/1.1/DTD/svg11.dtd"><svg t="1609488735282" class="icon" viewBox="0 0 1256 1024" version="1.1" xmlns="http://www.w3.org/2000/svg" p-id="5491" xmlns:xlink="http://www.w3.org/1999/xlink" width="245.3125" height="200"><defs><style type="text/css"></style></defs><path d="M401.092212 76.601806l15.624258 15.987613 40.431484 43.140129c2.279226 2.34529 4.294194 4.459355 6.276129 6.441291l6.210064 6.144c1.882839 1.816774 3.567484 3.36929 5.086968 4.69058l2.114064 1.783742c1.057032 0.891871 1.783742 1.32129 0.396387 1.486452l5.483355-0.561548c6.672516-0.891871 18.266839-2.873806 39.969033-6.606452 18.299871-3.038968 33.659871-5.12 48.557419-6.408258 10.008774-0.858839 19.422968-1.32129 28.308645-1.32129 8.951742 0 18.498065 0.495484 28.638968 1.354322 11.792516 1.057032 23.816258 2.543484 37.590709 4.657548l10.66942 1.684646 30.653935 5.153032 11.098839 1.585548 6.573419 0.528516c-2.675613 0-2.873806-0.198194-2.213161-0.858838l0.627613-0.594581a129.156129 129.156129 0 0 0 9.579355-10.107871l3.038968-3.501419c2.77471-3.303226 5.813677-6.969806 9.315096-11.330065l34.023226-43.371355 10.834581-13.477161c29.200516-35.740903 45.716645-50.539355 62.992516-50.539355 42.182194 0 94.769548 162.485677 94.769548 254.183226a16.516129 16.516129 0 0 1-33.032258 0c0-73.265548-47.896774-221.150968-61.770322-221.150968-3.005935 0-20.050581 16.978581-43.470452 45.947871l-38.647742 49.185033c-3.633548 4.525419-6.837677 8.390194-9.810581 11.891612-16.218839 19.15871-24.576 26.756129-36.236387 26.756129l-5.912774-0.264258a238.625032 238.625032 0 0 1-16.97858-2.279225l-30.72-5.153033-19.819355-3.005935c-9.249032-1.32129-17.738323-2.312258-25.996387-3.005936a298.380387 298.380387 0 0 0-25.798194-1.222193c-7.861677 0-16.350968 0.396387-25.500903 1.189161-13.873548 1.189161-28.473806 3.171097-46.046968 6.044903l-31.413677 5.384258c-10.339097 1.618581-16.450065 2.312258-20.810323 2.312258-9.777548 0-17.209806-5.384258-31.744-19.852387l-14.369032-14.798451-33.296516-35.608774-6.903742-7.234065c-27.482839-28.506839-47.566452-44.75871-53.281032-44.75871-7.597419 0-30.72 73.463742-52.025807 203.709936a16.516129 16.516129 0 0 1-32.602839-5.318194l3.897807-23.320774c24.576-143.525161 46.575484-208.103226 80.730839-208.103226 17.11071 0 35.972129 13.60929 64.908387 42.512516zM210.529115 292.269419a16.516129 16.516129 0 1 1 24.377806 22.296775c-119.279484 130.378323-167.539613 268.254968-145.738322 414.72 21.20671 142.369032 139.131871 216.526452 359.952516 222.307096a16.516129 16.516129 0 0 1-0.858839 33.032258c-235.189677-6.177032-367.814194-89.616516-391.762581-250.483613-23.320774-156.804129 28.341677-304.458323 154.02942-441.872516zM999.405502 292.269419a16.516129 16.516129 0 1 0-24.377807 22.296775c119.246452 130.378323 167.506581 268.254968 145.705291 414.72-21.173677 142.369032-139.098839 216.526452-359.919484 222.307096a16.516129 16.516129 0 0 0 0.858839 33.032258c235.156645-6.177032 367.781161-89.616516 391.76258-250.483613 23.320774-156.804129-28.341677-304.458323-154.029419-441.872516z" fill="#333333" p-id="5492"></path><path d="M1211.241373 183.989677a43.866839 43.866839 0 0 0-61.836387 0l-2.213161 2.180129a8.588387 8.588387 0 0 1-12.155871 0l-2.213162-2.213161a43.866839 43.866839 0 0 0-61.836387 0c-17.011613 17.011613-20.050581 60.349935 13.113807 95.198968a145.672258 145.672258 0 0 0 49.317161 34.023226c4.954839 2.048 10.471226 2.048 15.393032 0a145.672258 145.672258 0 0 0 49.317161-34.023226c33.164387-34.849032 30.125419-78.154323 13.113807-95.198968z" fill="#E82F46" p-id="5493"></path><path d="M1141.774534 168.596645l-0.660645 0.594581 3.402323 3.105032c-23.452903-23.452903-61.770323-23.452903-85.223226 0-26.690065 26.690065-22.759226 80.796903 12.816516 118.255484a159.677935 159.677935 0 0 0 55.064774 37.921032c8.91871 3.666581 18.993548 3.666581 27.912258 0a159.677935 159.677935 0 0 0 55.031742-37.954064c35.575742-37.392516 39.506581-91.499355 12.816516-118.222452a60.382968 60.382968 0 0 0-81.160258-3.699613z m-20.612129 27.05342l2.180129 2.180129a25.104516 25.104516 0 0 0 35.54271 0l2.180129-2.180129a27.35071 27.35071 0 0 1 38.515613 0c13.047742 13.080774 10.570323 46.872774-13.411097 72.142451a127.174194 127.174194 0 0 1-43.602581 30.125419 3.765677 3.765677 0 0 1-2.873806 0 127.174194 127.174194 0 0 1-43.602581-30.125419c-24.047484-25.269677-26.491871-59.061677-13.444129-72.142451a27.35071 27.35071 0 0 1 38.515613 0zM19.074147 628.702968l2.972903 0.462451 132.129033 33.032258a16.516129 16.516129 0 0 1-5.086968 32.503742l-2.972903-0.462451-132.129033-33.032258a16.516129 16.516129 0 0 1 5.086968-32.503742z" fill="#333333" p-id="5494"></path><path d="M1206.121373 628.702968l-2.972903 0.462451-132.129033 33.032258a16.516129 16.516129 0 0 0 5.086968 32.503742l2.972903-0.462451 132.129033-33.032258a16.516129 16.516129 0 0 0-5.086968-32.503742zM1077.097373 711.38271a16.516129 16.516129 0 0 0-7.002839 32.140387l2.906839 0.660645 132.129032 16.516129a16.516129 16.516129 0 0 0 7.002839-32.173419l-2.906839-0.627613-132.129032-16.516129z" fill="#333333" p-id="5495"></path><path d="M148.098147 711.38271a16.516129 16.516129 0 0 1 7.002839 32.140387l-2.906839 0.660645-132.129032 16.516129a16.516129 16.516129 0 0 1-7.002839-32.173419l2.906839-0.627613 132.129032-16.516129z" fill="#333333" p-id="5496"></path><path d="M351.411695 711.250581a33.032258 33.032258 0 1 0 0-66.064516 33.032258 33.032258 0 0 0 0 66.064516z" fill="#333333" p-id="5497"></path><path d="M265.75905 826.863484a66.064516 66.064516 0 1 0 0-132.129032 66.064516 66.064516 0 0 0 0 132.129032zM926.404212 826.863484a66.064516 66.064516 0 1 0 0-132.129032 66.064516 66.064516 0 0 0 0 132.129032z" fill="#F6B2B1" p-id="5498"></path><path d="M839.430276 711.250581a33.032258 33.032258 0 1 0 0-66.064516 33.032258 33.032258 0 0 0 0 66.064516zM596.081631 694.734452c18.233806 0 28.440774-7.399226 28.440774-16.516129s-10.206968-16.516129-28.440774-16.516129-27.152516 7.399226-27.152516 16.516129 8.91871 16.516129 27.152516 16.516129z" fill="#333333" p-id="5499"></path><path d="M612.663825 703.917419a66.064516 66.064516 0 0 1-131.963871 4.954839l-0.165162-4.954839v-20.579096a16.516129 16.516129 0 0 1 32.768-2.972904l0.264258 2.972904v20.579096a33.032258 33.032258 0 0 0 65.833291 3.831742l0.231225-3.831742v-20.579096a16.516129 16.516129 0 0 1 32.768-2.972904l0.264259 2.972904v20.579096z" fill="#333333" p-id="5500"></path><path d="M711.760599 703.917419a66.064516 66.064516 0 0 1-131.963871 4.954839l-0.165162-4.954839v-20.579096a16.516129 16.516129 0 0 1 32.768-2.972904l0.264259 2.972904v20.579096a33.032258 33.032258 0 0 0 65.83329 3.831742l0.231226-3.831742v-20.579096a16.516129 16.516129 0 0 1 32.768-2.972904l0.264258 2.972904v20.579096z" fill="#333333" p-id="5501"></path><path d="M343.450921 142.269935c-11.230968 3.79871-18.167742 24.509935-25.038451 52.95071-6.837677 28.473806-12.387097 57.079742-2.510452 61.539097 9.843613 4.459355 81.19329-29.266581 84.166194-45.848774 3.005935-16.615226-45.35329-72.439742-56.617291-68.641033zM851.057631 142.269935c11.230968 3.79871 18.167742 24.509935 25.005419 52.95071 6.87071 28.473806 12.420129 57.079742 2.543484 61.539097s-81.19329-29.266581-84.199226-45.848774c-2.972903-16.615226 45.386323-72.439742 56.650323-68.641033z" fill="#F6B2B1" p-id="5502"></path></svg>